<svg xmlns="http://www.w3.org/2000/svg" width="43.91" height="45.4"><path fill="#FF8C00" d="M30.39 39.805c3.869 0 8.067 1.327 12.714 5.444.465.413 1.085-.1.68-.612-4.567-5.766-8.791-6.864-13.003-7.792-5.152-1.135-7.803-4.034-9.65-7.217-.367-.634-.532-.522-.565.292-.04.996.028 2.313.25 3.61-.207.009-.416.006-.626.006-7.371 0-13.347-5.975-13.347-13.346S12.82 6.843 20.19 6.843c7.37 0 13.346 5.976 13.346 13.347 0 .524-.025 1.043-.084 1.551-.975-.175-2.893-.195-4.239-.079-.506.044-.435.28-.052.349 4.412.797 7.443 3.531 8.136 8.493.016.114.165.148.224.05a20.098 20.098 0 0 0 2.858-10.364C40.38 9.04 31.34 0 20.19 0S0 9.04 0 20.19c0 11.15 9.04 20.19 20.19 20.19 2.958 0 5.893-.575 10.2-.575m1.503-7.33c.898.76 1.171 1.662.696 2.3-.264.348-.693.54-1.206.54a2.14 2.14 0 0 1-1.374-.497c-.817-.713-1.056-1.87-.523-2.528.208-.257.547-.399.952-.399.493 0 1.01.208 1.455.584m4.144-1.929c.132.885-.148 1.251-.428 1.251-.307 0-.691-.358-1.145-1.066-.448-.698-.611-1.5-.39-1.905.147-.268.454-.385.84-.238.75.283 1.044 1.43 1.123 1.958" mask="url(#qiwi-b)"/></svg>