<svg xmlns="http://www.w3.org/2000/svg" xmlns:xlink="http://www.w3.org/1999/xlink" width="36" height="24"><defs><path id="a" d="M0 .035h10.247v2.13H0z"/></defs><g fill="none" fill-rule="evenodd"><rect width="36" height="24" fill="#EF3124" rx="2"/><path fill="#FEFEFE" d="M16.701 10.77l1.415-4.246h.017l1.42 4.247H16.7zm6.165 3.08l-3.028-8.293C19.552 4.778 19.211 4 18.124 4s-1.44.79-1.716 1.557c-.142.397-2.922 8.003-3.026 8.293-.03.08.009.177.093.209l1.647.639a.157.157 0 0 0 .202-.096l.711-1.954h4.183l.707 1.954a.16.16 0 0 0 .202.096l1.648-.64c.1-.037.115-.144.091-.208z"/><g transform="translate(13 17.797)"><mask id="b" fill="#fff"><use xlink:href="#a"/></mask><path fill="#FEFEFE" d="M10.09.035H.158A.16.16 0 0 0 0 .197v1.806c0 .09.07.162.158.162h9.932a.16.16 0 0 0 .157-.162V.197a.16.16 0 0 0-.157-.162" mask="url(#b)"/></g></g></svg>