<svg xmlns="http://www.w3.org/2000/svg" width="36" height="24"><g fill="none" fill-rule="evenodd"><rect width="36" height="24" fill="#0C437E" rx="2"/><path fill="#FFF" d="M18 20a8 8 0 1 1 0-16 8 8 0 0 1 0 16zm4.223-3v-5.264h-4.256v1.33h2.66c-.01.42-.075.803-.196 1.148a2.29 2.29 0 0 1-.539.875c-.238.238-.53.42-.875.546a3.26 3.26 0 0 1-1.19.175c-.532 0-.992-.107-1.379-.322a2.704 2.704 0 0 1-.945-.861 3.884 3.884 0 0 1-.539-1.225 5.641 5.641 0 0 1-.175-1.4c0-.476.058-.943.175-1.4.117-.457.296-.866.539-1.225.243-.36.558-.646.945-.861.387-.215.847-.322 1.379-.322.317 0 .62.042.91.126.29.084.55.21.784.378.233.168.427.376.581.623.154.247.254.534.301.861h1.708a3.757 3.757 0 0 0-.476-1.484 3.568 3.568 0 0 0-.952-1.071 4.132 4.132 0 0 0-1.309-.644 5.436 5.436 0 0 0-1.547-.217c-.747 0-1.416.14-2.009.42a4.498 4.498 0 0 0-1.505 1.134 5.042 5.042 0 0 0-.945 1.666 6.129 6.129 0 0 0-.329 2.016c0 .719.11 1.395.329 2.03.22.635.534 1.19.945 1.666.41.476.912.852 1.505 1.127.593.275 1.262.413 2.009.413.607 0 1.143-.103 1.61-.308.467-.205.933-.574 1.4-1.106L21.103 17h1.12z"/></g></svg>