<svg xmlns="http://www.w3.org/2000/svg" xmlns:xlink="http://www.w3.org/1999/xlink" width="128" height="80"><defs><rect id="a" width="128" height="80" rx="3.2"/><linearGradient id="b" x1="0%" y1="0%" y2="100%"><stop offset="0%" stop-color="#3DB3EA"/><stop offset="100%" stop-color="#298AD0"/></linearGradient></defs><g fill="none" fill-rule="evenodd"><use fill="#FFF" xlink:href="#a"/><rect width="127" height="79" x=".5" y=".5" stroke="#ECEFF1" rx="3.2"/><path fill="#58AE41" d="M63.385 43.54l5.786-13.283A3.757 3.757 0 0 1 72.615 28h6.77v23h-6.77V35.46L66.83 48.742A3.757 3.757 0 0 1 63.385 51h-6.77V28h6.77v15.54zM30.769 28h.88a4.923 4.923 0 0 1 4.829 3.967l2.291 11.574 2.292-11.574A4.923 4.923 0 0 1 45.89 28h7.648v23h-6.77V33.595L42.462 51h-7.385l-4.308-17.405V51H24V28h6.77zm58.462 10.568H104a5.595 5.595 0 0 1-5.595 5.594h-9.174V51h-6.77V38.568h6.77z"/><path fill="url(#b)" d="M81.846 28h12.83A9.324 9.324 0 0 1 104 37.324H91.17A9.324 9.324 0 0 1 81.846 28z"/></g></svg>