<svg xmlns="http://www.w3.org/2000/svg" xmlns:xlink="http://www.w3.org/1999/xlink" width="128" height="80"><defs><rect id="a" width="128" height="80" rx="3.2"/></defs><g fill="none" fill-rule="evenodd"><use fill="#FFF" xlink:href="#a"/><rect width="127" height="79" x=".5" y=".5" stroke="#ECEFF1" rx="3.2"/><g fill-rule="nonzero"><path fill="#231F20" d="M45.858 62.793c0-.908.596-1.654 1.57-1.654.931 0 1.56.714 1.56 1.654s-.629 1.654-1.56 1.654c-.974 0-1.57-.746-1.57-1.654zm4.19 0V60.21h-1.125v.627c-.357-.465-.899-.757-1.635-.757-1.45 0-2.588 1.136-2.588 2.713 0 1.578 1.137 2.712 2.588 2.712.736 0 1.278-.292 1.635-.757v.627h1.125v-2.582zm38.022 0c0-.908.596-1.654 1.57-1.654.932 0 1.56.714 1.56 1.654s-.628 1.654-1.56 1.654c-.974 0-1.57-.746-1.57-1.654zm4.191 0v-4.657h-1.126v2.701c-.357-.465-.899-.757-1.635-.757-1.45 0-2.588 1.136-2.588 2.713 0 1.578 1.137 2.712 2.588 2.712.736 0 1.278-.292 1.635-.757v.627h1.126v-2.582zm-28.246-1.707c.724 0 1.19.454 1.31 1.253h-2.686c.12-.746.574-1.253 1.376-1.253zm.022-1.006c-1.517 0-2.578 1.102-2.578 2.713 0 1.642 1.104 2.712 2.653 2.712.78 0 1.494-.194 2.122-.723l-.552-.833c-.433.345-.986.54-1.505.54-.725 0-1.386-.334-1.548-1.265h3.843c.01-.14.022-.28.022-.431-.011-1.61-1.007-2.713-2.457-2.713zm13.586 2.713c0-.908.596-1.654 1.57-1.654.93 0 1.559.714 1.559 1.654s-.628 1.654-1.559 1.654c-.974 0-1.57-.746-1.57-1.654zm4.19 0V60.21h-1.126v.627c-.358-.465-.898-.757-1.634-.757-1.451 0-2.589 1.136-2.589 2.713 0 1.578 1.138 2.712 2.589 2.712.736 0 1.276-.292 1.634-.757v.627h1.126v-2.582zm-10.544 0c0 1.567 1.092 2.712 2.76 2.712.78 0 1.299-.173 1.862-.616l-.54-.908c-.423.304-.867.466-1.355.466-.898-.012-1.559-.66-1.559-1.654 0-.995.66-1.643 1.559-1.654.488 0 .932.162 1.354.465l.54-.908c-.562-.443-1.081-.616-1.86-.616-1.669 0-2.761 1.146-2.761 2.713zm14.506-2.713c-.649 0-1.071.303-1.364.757v-.627h-1.115v5.165h1.126V62.48c0-.855.368-1.33 1.104-1.33.228 0 .466.032.704.13l.347-1.059a2.4 2.4 0 0 0-.802-.14zm-30.162.54c-.541-.355-1.287-.54-2.11-.54-1.311 0-2.155.627-2.155 1.654 0 .842.628 1.362 1.785 1.524l.532.075c.617.087.908.249.908.54 0 .4-.411.628-1.18.628-.779 0-1.341-.249-1.72-.54l-.53.874c.616.454 1.396.67 2.24.67 1.494 0 2.36-.702 2.36-1.686 0-.907-.681-1.382-1.808-1.544l-.53-.077c-.487-.064-.877-.161-.877-.507 0-.379.368-.605.985-.605.66 0 1.3.248 1.613.443l.487-.908zm14.518-.54c-.65 0-1.072.303-1.363.757v-.627h-1.115v5.165h1.125V62.48c0-.855.368-1.33 1.104-1.33.228 0 .466.032.704.13l.347-1.059a2.4 2.4 0 0 0-.802-.14zm-9.602.13h-1.84v-1.567H57.55v1.567H56.5v1.027h1.05v2.356c0 1.199.466 1.912 1.797 1.912.488 0 1.05-.15 1.408-.4l-.325-.961a2.086 2.086 0 0 1-.996.291c-.563 0-.746-.346-.746-.864v-2.334h1.84V60.21zm-16.824 5.165v-3.241c0-1.221-.78-2.043-2.036-2.054-.66-.01-1.342.194-1.82.92-.356-.573-.919-.92-1.71-.92-.552 0-1.092.162-1.515.767v-.637h-1.126v5.165h1.136v-2.863c0-.897.498-1.373 1.268-1.373.747 0 1.125.486 1.125 1.362v2.874h1.137v-2.863c0-.897.52-1.373 1.267-1.373.768 0 1.136.486 1.136 1.362v2.874h1.138z"/><path fill="#FF5F00" d="M72.293 51.433H55.24V20.841h17.053z"/><path fill="#EB001B" d="M56.322 36.137c0-6.205 2.91-11.733 7.443-15.295a19.427 19.427 0 0 0-12.044-4.16c-10.763 0-19.488 8.71-19.488 19.455 0 10.745 8.725 19.456 19.488 19.456 4.546 0 8.73-1.555 12.044-4.16-4.532-3.562-7.443-9.09-7.443-15.296"/><path fill="#F79E1B" d="M95.299 36.137c0 10.745-8.725 19.456-19.488 19.456-4.547 0-8.73-1.555-12.046-4.16 4.534-3.562 7.445-9.09 7.445-15.296 0-6.205-2.911-11.733-7.445-15.295a19.434 19.434 0 0 1 12.046-4.16c10.763 0 19.488 8.71 19.488 19.455"/></g></g></svg>