<svg xmlns="http://www.w3.org/2000/svg" width="139" height="22"><g fill="none" fill-rule="evenodd"><path d="M55 6.94c1.844-2.493 8.773-2.584 11-.268v6.57c-1.08 1.034-3.234 1.55-5.39 1.55a8.531 8.531 0 0 1-2.429-.356V17H55V6.94zm8.058 1.388c-1.48-.535-3.4-.535-4.877 0v3.58c1.513.516 3.362.392 4.877-.125V8.328zM69 17V5h3.163v9.017H77V17h-8m23 0h-3.112v-2.53h-4.774V17H81V6.938c1.879-2.584 9.121-2.584 11 0V17zm-3.112-5.432V8.47c-1.45-.554-3.326-.554-4.774 0v3.098h4.774zM94 7.982V5h11v2.982h-3.703V17h-3.596V7.982H94M108 17h3V5h-3zm6.266-8.798V5h10.465v2.779l-5.886 6.019H125V17h-11v-2.779l6.099-6.019h-5.833M139 17h-3.114v-2.53h-4.775V17H128V6.938c1.877-2.584 9.121-2.584 11 0V17zm-3.114-5.432V8.47c-1.45-.554-3.325-.554-4.775 0v3.098h4.775z" fill="#FFF"/><path d="M34.04 22c2.04 0 4.497-1.664 5.491-3.718l7.053-14.564C47.578 1.667 46.73 0 44.69 0H28.08c-2.039 0-4.5 1.667-5.493 3.718l-7.053 14.564C14.697 20.014 13.791 21.59 12 22h22.04M1.507 12C.15 12-.391 13.132.301 14.524l2.445 4.929c.693 1.393 2.353 2.522 3.71 2.522.676 0 1.444.056 2.19 0 1.798-.132 3.065-1.984 3.887-3.714L15 13.066C14.238 12.422 13.298 12 12.47 12H1.506" fill="#4CAF50"/></g></svg>