<svg xmlns="http://www.w3.org/2000/svg" xmlns:xlink="http://www.w3.org/1999/xlink" width="44" height="44"><defs><path id="a" d="M0 0h44v44H0z"/></defs><g fill="none" fill-rule="evenodd"><mask id="b" fill="#fff"><use xlink:href="#a"/></mask><path fill="#4CAF50" d="M44 22c0 12.15-9.85 22-22 22S0 34.15 0 22 9.85 0 22 0s22 9.85 22 22" mask="url(#b)"/><path stroke="#FFF" d="M20.9 21.5c0-.889-.65-1.663-1.237-2.334-1.153-1.317-3.163-2.215-3.163-4.213V9.5h11v5.453c0 1.998-2.01 2.896-3.162 4.214-.588.671-1.24 1.445-1.24 2.333"/><path stroke="#FFF" d="M20.9 21.499c0 .889-.65 1.663-1.237 2.334-1.153 1.317-3.163 2.215-3.163 4.213V33.5h11v-5.454c0-1.997-2.01-2.896-3.162-4.213-.588-.671-1.24-1.445-1.24-2.334"/><path fill="#FFF" d="M25 15c0 1.65-1.35 3-3 3s-3-1.35-3-3m2.5 9.5c0 .548-.409 1.025-.778 1.438-.724.812-2.222 1.366-2.222 2.597V31.5h6.812v-2.965c0-1.231-1.498-1.785-2.222-2.597-.369-.414-.778-.89-.778-1.438"/><path stroke="#FFF" d="M21.5 24.5c0 .548-.409 1.025-.778 1.438-.724.812-2.222 1.366-2.222 2.597V31.5h6.812v-2.965c0-1.231-1.498-1.785-2.222-2.597-.369-.414-.778-.89-.778-1.438"/><path fill="#FFF" d="M15 9.5h14"/><path stroke="#FFF" d="M15 9.5h14"/><path fill="#FFF" d="M15 33.5h14"/><path stroke="#FFF" d="M15 33.5h14"/></g></svg>