<svg xmlns="http://www.w3.org/2000/svg" xmlns:xlink="http://www.w3.org/1999/xlink" width="44" height="44"><defs><path id="a" d="M0 0h44v44H0z"/></defs><g fill="none" fill-rule="evenodd"><mask id="b" fill="#fff"><use xlink:href="#a"/></mask><path fill="#E91E63" d="M44 22c0 12.15-9.85 22-22 22S0 34.15 0 22 9.85 0 22 0s22 9.85 22 22" mask="url(#b)"/><path fill="#FFF" d="M34 22c0 4.971-5.373 9-12 9s-12-4.029-12-9c0-4.97 5.373-9 12-9s12 4.03 12 9"/><path fill="#FFF" d="M13.621 21.5c.193.767.288 1.567.253 2.392-.136 3.211-2.087 5.93-4.874 7.328a9.731 9.731 0 0 0 1.89.271 9.472 9.472 0 0 0 5.974-1.765 8.65 8.65 0 0 0 .13-1.1c.12-2.849-1.217-5.434-3.373-7.126"/><path fill="#E91E63" d="M23 22a1 1 0 1 1-2 0 1 1 0 0 1 2 0m4 0a1 1 0 1 1-2-.001 1 1 0 0 1 2 0m-8 0a1 1 0 1 1-2.001 0 1 1 0 0 1 2 0"/></g></svg>