<svg xmlns="http://www.w3.org/2000/svg" xmlns:xlink="http://www.w3.org/1999/xlink" width="44" height="44"><defs><path id="a" d="M0 0h44v44H0z"/><path id="c" d="M0 44h44V0H0z"/></defs><g fill="none" fill-rule="evenodd"><mask id="b" fill="#fff"><use xlink:href="#a"/></mask><path fill="#4CAF50" d="M44 22c0 12.15-9.85 22-22 22S0 34.15 0 22 9.85 0 22 0s22 9.85 22 22" mask="url(#b)"/><mask id="d" fill="#fff"><use xlink:href="#c"/></mask><path fill="#FFF" mask="url(#d)" d="M8 27h24V15H8z"/><path stroke="#FFF" mask="url(#d)" d="M33.5 17v11.5H10"/><path stroke="#FFF" mask="url(#d)" d="M35.5 19v11.5H12"/><path stroke="#4CAF50" stroke-linecap="round" d="M16.5 23.5h5.178m-3.178-7v9m0-9h2.186A2.322 2.322 0 0 1 23 18.814v.372a2.322 2.322 0 0 1-2.314 2.314H16.5" mask="url(#d)"/></g></svg>