<svg width="148" height="48" xmlns="http://www.w3.org/2000/svg"><g fill="none" fill-rule="evenodd"><rect fill="#FFF" width="148" height="48" rx="4"/><path d="M112.964 35.234h1.865v-12.5h-1.865v12.5zm16.807-7.998l-2.139 5.42h-.065l-2.219-5.42h-2.01l3.329 7.575-1.898 4.214h1.946l5.131-11.789h-2.075zm-10.583 6.578c-.611 0-1.463-.306-1.463-1.062 0-.964 1.061-1.335 1.978-1.335.82 0 1.206.178 1.704.418a2.26 2.26 0 0 1-2.219 1.98zm.225-6.852c-1.35 0-2.75.596-3.329 1.914l1.656.692c.355-.692 1.014-.917 1.705-.917.965 0 1.947.58 1.962 1.608v.13c-.338-.194-1.061-.483-1.946-.483-1.785 0-3.603.981-3.603 2.814 0 1.673 1.464 2.751 3.105 2.751 1.254 0 1.946-.563 2.38-1.223h.064v.965h1.802V30.42c0-2.219-1.657-3.458-3.796-3.458zm-11.531 1.796h-2.654v-4.285h2.654c1.394 0 2.186 1.154 2.186 2.142 0 .97-.792 2.143-2.186 2.143zm-.049-6.026h-4.471v12.502h1.866v-4.736h2.605c2.068 0 4.102-1.497 4.102-3.883 0-2.385-2.034-3.883-4.102-3.883zM83.452 33.816c-1.289 0-2.368-1.079-2.368-2.56 0-1.5 1.079-2.595 2.368-2.595 1.273 0 2.272 1.095 2.272 2.594 0 1.482-.999 2.561-2.272 2.561zm2.143-5.88h-.065c-.419-.499-1.224-.95-2.239-.95-2.127 0-4.076 1.87-4.076 4.27 0 2.383 1.949 4.236 4.076 4.236 1.015 0 1.82-.45 2.239-.967h.065v.612c0 1.628-.87 2.497-2.272 2.497-1.143 0-1.852-.82-2.142-1.514l-1.627.677c.467 1.127 1.707 2.513 3.769 2.513 2.192 0 4.044-1.289 4.044-4.43v-7.637h-1.772v.693zm3.061 7.298h1.868v-12.5h-1.868v12.5zm4.623-4.124c-.047-1.644 1.274-2.48 2.224-2.48.741 0 1.369.37 1.579.901l-3.803 1.58zm5.8-1.418c-.354-.95-1.433-2.707-3.64-2.707-2.192 0-4.012 1.724-4.012 4.254 0 2.384 1.805 4.253 4.221 4.253 1.949 0 3.077-1.192 3.544-1.885l-1.45-.967c-.483.71-1.143 1.176-2.094 1.176-.951 0-1.627-.435-2.062-1.289l5.687-2.352-.194-.483zm-45.308-1.4v1.803h4.318c-.129 1.015-.467 1.756-.983 2.271-.628.63-1.611 1.322-3.335 1.322-2.658 0-4.736-2.143-4.736-4.8 0-2.659 2.078-4.803 4.736-4.803 1.434 0 2.481.564 3.254 1.29l1.273-1.273c-1.079-1.03-2.513-1.82-4.527-1.82-3.641 0-6.702 2.964-6.702 6.605 0 3.64 3.061 6.605 6.702 6.605 1.965 0 3.448-.645 4.607-1.853 1.193-1.192 1.563-2.867 1.563-4.22 0-.419-.032-.806-.096-1.128h-6.074zm11.079 5.524c-1.289 0-2.401-1.063-2.401-2.577 0-1.53 1.112-2.578 2.401-2.578 1.289 0 2.4 1.047 2.4 2.578 0 1.514-1.111 2.577-2.4 2.577zm0-6.83c-2.352 0-4.269 1.788-4.269 4.253 0 2.45 1.917 4.253 4.269 4.253 2.352 0 4.269-1.804 4.269-4.253 0-2.465-1.917-4.254-4.269-4.254zm9.313 6.83c-1.288 0-2.4-1.063-2.4-2.577 0-1.53 1.112-2.578 2.4-2.578 1.289 0 2.401 1.047 2.401 2.578 0 1.514-1.112 2.577-2.401 2.577zm0-6.83c-2.352 0-4.269 1.788-4.269 4.253 0 2.45 1.917 4.253 4.269 4.253 2.353 0 4.27-1.804 4.27-4.253 0-2.465-1.917-4.254-4.27-4.254z" fill="#263238"/><path d="M16.463 10.772c-.291.308-.463.785-.463 1.405v22.116c0 .62.172 1.097.463 1.405l.073.072 12.39-12.389v-.292L16.536 10.7l-.073.073z" fill="#49D0FF"/><path d="M28.926 23.09v.291l4.129 4.132.095-.053 4.892-2.78c1.398-.795 1.398-2.095 0-2.889l-4.892-2.78-.094-.053-4.13 4.131z" fill="#FBCD00"/><path d="M16.463 35.698c.46.488 1.221.548 2.078.061l14.609-8.3-4.224-4.224-12.463 12.463z" fill="#ED4741"/><path d="M16.463 10.772l12.463 12.463 4.224-4.224-14.609-8.3c-.402-.229-.783-.337-1.121-.337-.383 0-.713.14-.957.398" fill="#60ED6B"/><text font-family="Roboto-Regular, Roboto" font-size="9" fill="#607D8B" transform="translate(16 8)"><tspan x="31" y="8">ДОСТУПНО В</tspan></text></g></svg>