<svg width="44" height="44" fill="none" xmlns="http://www.w3.org/2000/svg"><mask id="a" maskUnits="userSpaceOnUse" x="0" y="0" width="44" height="44"><path d="M0 0h44v44H0V0z" fill="#fff"/></mask><g mask="url(#a)"><path fill-rule="evenodd" clip-rule="evenodd" d="M44 22c0 12.15-9.85 22-22 22S0 34.15 0 22 9.85 0 22 0s22 9.85 22 22z" fill="#4CAF50"/><path d="M20.9 21.5c0-.889-.65-1.663-1.237-2.334-1.153-1.317-3.163-2.215-3.163-4.213V9.5h11v5.453c0 1.998-2.01 2.896-3.162 4.214-.588.671-1.24 1.445-1.24 2.333" stroke="#fff"/><path d="M20.9 21.499c0 .889-.65 1.663-1.237 2.334-1.153 1.317-3.163 2.215-3.163 4.213V33.5h11v-5.454c0-1.997-2.01-2.896-3.162-4.213-.588-.671-1.24-1.445-1.24-2.334" stroke="#fff"/><path fill-rule="evenodd" clip-rule="evenodd" d="M25 15c0 1.65-1.35 3-3 3s-3-1.35-3-3h6zm-3.5 9.5c0 .548-.409 1.025-.778 1.438-.724.812-2.222 1.366-2.222 2.597V31.5h6.812v-2.965c0-1.231-1.498-1.785-2.222-2.597-.369-.414-.778-.89-.778-1.438" fill="#fff"/><path d="M21.5 24.5c0 .548-.409 1.025-.778 1.438-.724.812-2.222 1.366-2.222 2.597V31.5h6.812v-2.965c0-1.231-1.498-1.785-2.222-2.597-.369-.414-.778-.89-.778-1.438M15 9.5h14m-14 24h14" stroke="#fff"/></g></svg>