<svg xmlns="http://www.w3.org/2000/svg" width="80" height="23"><defs><linearGradient id="a" x1="41.143%" x2="58.857%" y1="0%" y2="100%"><stop offset="0%" stop-color="#3DB3EA"/><stop offset="100%" stop-color="#298AD0"/></linearGradient></defs><g fill="none"><path fill="#58AE41" d="M39.385 15.54L45.17 2.258A3.757 3.757 0 0 1 48.615 0h6.77v23h-6.77V7.46L42.83 20.742A3.757 3.757 0 0 1 39.385 23h-6.77V0h6.77v15.54zM6.769 0h.88a4.923 4.923 0 0 1 4.829 3.967l2.291 11.574 2.292-11.574A4.923 4.923 0 0 1 21.89 0h7.648v23h-6.77V5.595L18.462 23h-7.385L6.769 5.595V23H0V0h6.77zm58.462 10.568H80a5.595 5.595 0 0 1-5.595 5.594h-9.174V23h-6.77V10.568h6.77z"/><path fill="url(#a)" d="M57.846 0h12.83A9.324 9.324 0 0 1 80 9.324H67.17A9.324 9.324 0 0 1 57.846 0z"/></g></svg>