<svg xmlns="http://www.w3.org/2000/svg" width="81" height="26"><g fill="none"><path fill="#00579F" d="M35.516 25.76H29L33.076 1h6.516zM58.547 1.054C57.262.554 55.223 0 52.702 0c-6.435 0-10.966 3.371-10.994 8.191-.053 3.557 3.245 5.532 5.711 6.718 2.521 1.211 3.378 2.002 3.378 3.082-.026 1.659-2.037 2.423-3.913 2.423-2.602 0-3.996-.394-6.114-1.317l-.858-.395L39 24.26c1.528.684 4.344 1.29 7.267 1.317 6.838 0 11.289-3.319 11.342-8.455.026-2.819-1.716-4.978-5.47-6.743-2.279-1.133-3.675-1.897-3.675-3.056.027-1.054 1.18-2.133 3.753-2.133 2.119-.053 3.675.447 4.854.948l.59.263.886-5.347zM75.125 1l5.257 24.76H74.35s-.59-2.846-.778-3.715h-8.366l-1.368 3.714H57l9.68-22.705C67.35 1.447 68.53 1 70.084 1h5.04zm-8.043 15.988h5.416c-.268-1.238-1.502-7.164-1.502-7.164l-.455-2.134c-.322.922-.885 2.423-.858 2.37 0 0-2.065 5.506-2.601 6.928zM23.088 1l-6.381 16.884-.698-3.425C14.83 10.51 11.13 6.216 7 4.081l5.845 21.652h6.891L29.978 1h-6.89z"/><path fill="#FAA61A" d="M10.591 1H.107L0 1.5c8.178 2.055 13.594 7.008 15.82 12.96L13.54 3.082C13.166 1.5 12.013 1.052 10.592 1z"/></g></svg>