<svg xmlns="http://www.w3.org/2000/svg" width="170" height="170"><g fill="none" fill-rule="evenodd"><path fill="#145551" d="M170 85c0 46.944-38.056 85-85 85S0 131.944 0 85 38.056 0 85 0s85 38.056 85 85"/><path fill="#BA6100" d="M123 68H40v-4c0-2.75 2.25-5 5-5h72c3.3 0 6 2.7 6 6v3z"/><path stroke="#FF9800" stroke-width="2" d="M123 68H40v-4c0-2.75 2.25-5 5-5h72c3.3 0 6 2.7 6 6v3z"/><path fill="#BA6100" d="M75 68H45a5 5 0 0 1-5-5"/><path stroke="#FF9800" stroke-width="2" d="M75 68H45a5 5 0 0 1-5-5"/><path fill="#81C784" d="M78.332 102.643V38.864l32.668.001-.001 63.779z"/><path fill="#43A047" d="M81.443 94.277V47.23c2.89 0 5.255-2.364 5.255-5.255l15.935.001c0 2.89 2.365 5.254 5.255 5.254v47.048c-2.89 0-5.255 2.364-5.255 5.255H86.697c0-2.89-2.364-5.255-5.254-5.255"/><path fill="#81C784" d="M87.666 70.754c0-3.851 3.149-7.001 7-7.001 3.85 0 7 3.15 7 7s-3.15 7-7 7c-3.851 0-7.001-3.15-7-7m4.666-14v-7.777a2.34 2.34 0 0 1 2.334-2.333 2.34 2.34 0 0 1 2.333 2.333v7.778a2.34 2.34 0 0 1-2.333 2.333 2.34 2.34 0 0 1-2.334-2.333m.002 35.775v-7.778a2.34 2.34 0 0 1 2.334-2.333 2.34 2.34 0 0 1 2.333 2.333v7.778a2.34 2.34 0 0 1-2.334 2.333 2.34 2.34 0 0 1-2.333-2.333"/><path fill="#81C784" d="M78.054 103.762L61.547 42.157l31.554-8.456 16.508 61.607z"/><path fill="#43A047" d="M78.894 94.876L66.717 49.432c2.792-.748 4.464-3.644 3.716-6.436l15.393-4.124c.748 2.791 3.644 4.463 6.435 3.716l12.177 45.444c-2.791.748-4.464 3.644-3.716 6.436L85.33 98.592c-.75-2.791-3.644-4.464-6.436-3.716"/><path fill="#81C784" d="M78.815 70.544c-.996-3.72 1.231-7.577 4.95-8.574 3.72-.996 7.577 1.23 8.573 4.95.998 3.719-1.23 7.577-4.949 8.573-3.72.997-7.577-1.23-8.574-4.95m.885-14.73l-2.013-7.514a2.339 2.339 0 0 1 1.65-2.856 2.34 2.34 0 0 1 2.858 1.649l2.013 7.513a2.34 2.34 0 0 1-1.65 2.858 2.34 2.34 0 0 1-2.858-1.65m9.26 34.556l-2.012-7.514a2.34 2.34 0 0 1 1.65-2.857 2.34 2.34 0 0 1 2.858 1.65l2.013 7.513a2.34 2.34 0 0 1-1.65 2.857 2.34 2.34 0 0 1-2.858-1.649"/><path fill="#81C784" d="M78.89 106.002L47 50.767l28.291-16.333 31.889 55.234z"/><path fill="#43A047" d="M77.4 97.201L53.877 56.457c2.502-1.445 3.368-4.676 1.923-7.179l13.801-7.968c1.445 2.503 4.675 3.37 7.178 1.924l23.523 40.744c-2.503 1.446-3.368 4.675-1.923 7.178l-13.8 7.968c-1.446-2.503-4.676-3.368-7.179-1.923"/><path fill="#81C784" d="M71.027 73.718c-1.925-3.335-.77-7.638 2.563-9.563 3.333-1.924 7.637-.772 9.562 2.563 1.925 3.334.772 7.637-2.562 9.563-3.334 1.924-7.637.77-9.563-2.563M68.07 59.26l-3.889-6.735a2.34 2.34 0 0 1 .854-3.188 2.339 2.339 0 0 1 3.187.854l3.89 6.736a2.339 2.339 0 0 1-.854 3.187 2.34 2.34 0 0 1-3.188-.854m17.89 30.98l-3.89-6.735a2.342 2.342 0 0 1 .855-3.188 2.339 2.339 0 0 1 3.187.854L90 87.908a2.34 2.34 0 0 1-.853 3.187 2.34 2.34 0 0 1-3.188-.854"/><path fill="#FF9800" d="M123 127H45c-3.3 0-6-2.699-6-6V67h84c3.3 0 6 2.7 6 6v48c0 3.301-2.7 6-6 6"/><path stroke="#FFCD5C" stroke-dasharray="3.981 7.962" stroke-linecap="round" stroke-width="2" d="M119.032 120.001H48.968A2.977 2.977 0 0 1 46 117.032V76.969a2.976 2.976 0 0 1 2.968-2.968h70.064A2.977 2.977 0 0 1 122 76.969v40.063a2.977 2.977 0 0 1-2.968 2.969z"/><path fill="#D37800" d="M130 105.001h-16.733a3.276 3.276 0 0 1-3.267-3.267v-9.467a3.276 3.276 0 0 1 3.267-3.266H130c1.101 0 2 .899 2 2v12c0 1.1-.899 2-2 2"/><path fill="#795548" d="M118 100.001a3.01 3.01 0 0 1-3-3c0-1.65 1.351-3 3-3 1.65 0 3 1.35 3 3 0 1.649-1.35 3-3 3"/></g></svg>