<svg xmlns="http://www.w3.org/2000/svg" xmlns:xlink="http://www.w3.org/1999/xlink" width="108" height="108"><defs><path id="a" d="M0 0h108v108H0z"/></defs><g fill="none" fill-rule="evenodd"><mask id="b" fill="#FFF"><use xlink:href="#a"/></mask><path fill="#263238" d="M108 54c0 29.823-24.176 54-54 54S0 83.823 0 54C0 24.176 24.176 0 54 0s54 24.176 54 54" mask="url(#b)"/><path stroke="#ECEFF1" d="M73.4 37H77v8.34L53 57.851V65"/><path fill="#4CAF50" d="M52 81l.061-19 3.939.056L55.939 81z"/><path fill="#4CAF50" d="M54.856 61h-3.712c-.63 0-1.144.524-1.144 1.165v19.67c0 .64.515 1.165 1.144 1.165h3.712c.63 0 1.144-.524 1.144-1.165v-19.67c0-.64-.515-1.165-1.144-1.165zM52.4 80.556h1.2V63.444h-1.2v17.112z"/><path fill="#FFD600" d="M32.09 40c-.602 0-1.09-.465-1.09-1.038v-5.924c0-.563.5-1.038 1.09-1.038h39.82c.602 0 1.09.465 1.09 1.038v5.924c0 .573-.488 1.038-1.09 1.038H32.09z"/><path fill="#FFD600" d="M71.731 31H32.269C31.023 31 30 32.05 30 33.332v6.336C30 40.95 31.023 42 32.269 42h39.462C72.978 42 74 40.95 74 39.668v-6.336C74 32.05 72.978 31 71.731 31zm-39.353 8.556h39.244v-6.112H32.378v6.112z"/></g></svg>