<svg xmlns="http://www.w3.org/2000/svg" width="108" height="108"><g fill="none" fill-rule="evenodd"><path fill="#FF5722" d="M108 54c0 29.823-24.177 54-54 54S0 83.823 0 54 24.177 0 54 0s54 24.177 54 54"/><path fill="#ECEFF1" d="M70.5 25l1.5 9.88-1.5 3.8V63h-3V38.68l-1.5-3.8L67.5 25z"/><path fill="#FFD600" d="M71.654 83h-5.308C65.605 83 65 82.417 65 81.703v-9.407c0-.713.605-1.296 1.346-1.296h5.308c.74 0 1.346.583 1.346 1.296v9.407c0 .714-.606 1.297-1.346 1.297m.621-17h-6.55c-.4 0-.725-.305-.725-.68v-1.64c0-.375.326-.68.725-.68h6.55c.4 0 .725.305.725.68v1.64c0 .375-.326.68-.725.68"/><path fill="#FFD600" d="M65.8 72c-.44 0-.8-.327-.8-.727v-1.455c0-.4.23-.979.513-1.286l.974-1.064c.283-.307.513-.886.513-1.286v-1.455c0-.4.36-.727.8-.727h2.4c.44 0 .8.327.8.727v1.455c0 .4.23.979.513 1.286l.974 1.064c.283.307.513.886.513 1.286v1.455c0 .4-.36.727-.8.727h-6.4z"/><path stroke="#455A64" stroke-linecap="round" d="M68 72v8m2-8v8"/><path fill="#ECEFF1" d="M44.121 80.743a1.51 1.51 0 0 1-1.515-1.504c0-.83.679-1.504 1.515-1.504a1.51 1.51 0 0 1 1.515 1.504 1.51 1.51 0 0 1-1.515 1.504M57 39.372c0-4.09-2.774-7.628-6.818-9.372v8.808l-6.06 3.573-5.304-3.761V30C34.774 31.744 32 35.281 32 39.372c0 4.583 3.482 8.472 8.333 9.92v29.961c0 2.06 1.699 3.747 3.774 3.747h.029c2.075 0 3.773-1.686 3.773-3.747V49.496C53.153 48.245 57 44.19 57 39.372"/></g></svg>