<svg xmlns="http://www.w3.org/2000/svg" xmlns:xlink="http://www.w3.org/1999/xlink" width="90" height="90"><defs><path id="a" d="M0 0h90v90H0z"/><path id="c" d="M1.304 0a.93.93 0 0 0-.929.929v14.642c0 .514.416.929.929.929h4.141c.514 0 .93-.415.93-.929V.929A.93.93 0 0 0 5.445 0H1.304z"/><path id="e" d="M1.304 0a.93.93 0 0 0-.929.929v14.642c0 .514.416.929.929.929h4.141c.514 0 .93-.415.93-.929V.929A.93.93 0 0 0 5.445 0H1.304z"/><path id="g" d="M1.305 0a.93.93 0 0 0-.93.929v14.643c0 .513.416.928.93.928h4.14c.514 0 .93-.415.93-.928V.929A.93.93 0 0 0 5.445 0h-4.14z"/><path id="i" d="M1.305 0a.93.93 0 0 0-.93.929v14.643c0 .513.416.928.93.928h4.14c.514 0 .93-.415.93-.928V.929A.93.93 0 0 0 5.445 0h-4.14z"/><path id="k" d="M1.305 0a.93.93 0 0 0-.93.929v14.642c0 .514.416.929.93.929h4.141a.928.928 0 0 0 .929-.929V.929A.93.93 0 0 0 5.446 0H1.305z"/><path id="m" d="M1.305 0a.93.93 0 0 0-.93.929v14.642c0 .514.416.929.93.929h4.141a.928.928 0 0 0 .929-.929V.929A.93.93 0 0 0 5.446 0H1.305z"/></defs><g fill="none" fill-rule="evenodd"><path stroke="#FFF" stroke-width="2" d="M23.625 52.5v6.75h4.25"/><mask id="b" fill="#FFF"><use xlink:href="#a"/></mask><path fill="#3949AB" d="M90 45c0 24.853-20.147 45-45 45S0 69.853 0 45 20.147 0 45 0s45 20.147 45 45" mask="url(#b)"/><path fill="#FFD54F" d="M48.938 23.7a3.29 3.29 0 0 1-3.282 3.3 3.29 3.29 0 0 1-3.28-3.3c0-1.822 3.28-5.7 3.28-5.7s3.282 3.878 3.282 5.7"/><path fill="#FFF" d="M47.445 46.5h-4.14a.93.93 0 0 1-.93-.93V30.93a.93.93 0 0 1 .93-.93h4.14a.93.93 0 0 1 .93.93v14.64a.93.93 0 0 1-.93.93"/><g transform="translate(42 30)"><mask id="d" fill="#FFF"><use xlink:href="#c"/></mask><path fill="#F44336" mask="url(#d)" d="M11.101 1.38L-1.078 8.411l-.797-1.38L10.304 0z"/><mask id="f" fill="#FFF"><use xlink:href="#e"/></mask><path fill="#F44336" mask="url(#f)" d="M11.101 5.13l-12.179 7.031-.797-1.38L10.304 3.75z"/></g><path fill="#FFD54F" d="M60.938 23.7a3.29 3.29 0 0 1-3.282 3.3 3.29 3.29 0 0 1-3.28-3.3c0-1.822 3.28-5.7 3.28-5.7s3.282 3.878 3.282 5.7"/><path fill="#FFF" d="M59.445 46.5h-4.14a.93.93 0 0 1-.93-.929v-14.64a.93.93 0 0 1 .93-.93h4.14a.93.93 0 0 1 .93.93v14.64a.93.93 0 0 1-.93.93"/><g transform="translate(54 30)"><mask id="h" fill="#FFF"><use xlink:href="#g"/></mask><path fill="#F44336" mask="url(#h)" d="M11.101 1.381L-1.078 8.412l-.797-1.381L10.304 0z"/><mask id="j" fill="#FFF"><use xlink:href="#i"/></mask><path fill="#F44336" mask="url(#j)" d="M11.101 5.131l-12.179 7.031-.797-1.381L10.304 3.75z"/></g><path fill="#FFF" d="M35.445 46.5h-4.14a.93.93 0 0 1-.93-.93V30.93a.93.93 0 0 1 .93-.93h4.14a.93.93 0 0 1 .93.93v14.64a.93.93 0 0 1-.93.93"/><g transform="translate(30 30)"><mask id="l" fill="#FFF"><use xlink:href="#k"/></mask><path fill="#F44336" mask="url(#l)" d="M11.101 1.38L-1.078 8.411l-.797-1.38L10.304 0z"/><mask id="n" fill="#FFF"><use xlink:href="#m"/></mask><path fill="#F44336" mask="url(#n)" d="M11.101 5.13l-12.179 7.031-.797-1.38L10.304 3.75z"/></g><path fill="#FFD54F" d="M36.938 23.7a3.29 3.29 0 0 1-3.282 3.3 3.291 3.291 0 0 1-3.281-3.3c0-1.822 3.282-5.7 3.282-5.7s3.28 3.878 3.28 5.7"/><path fill="#FFF" d="M63.29 45H26.71a5.336 5.336 0 0 0-5.336 5.336v8.107a4.124 4.124 0 0 0 1.832.432h.648a4.188 4.188 0 0 0 4.176-4.176 4.188 4.188 0 0 0 4.176 4.176h.648a4.188 4.188 0 0 0 4.176-4.176 4.188 4.188 0 0 0 4.176 4.176h.648a4.188 4.188 0 0 0 4.176-4.176 4.188 4.188 0 0 0 4.176 4.176h.648a4.188 4.188 0 0 0 4.176-4.176 4.188 4.188 0 0 0 4.176 4.176h.648a4.188 4.188 0 0 0 4.176-4.176 4.188 4.188 0 0 0 4.176 4.176h.418v-8.538A5.337 5.337 0 0 0 63.29 45"/><path stroke="#F44336" d="M68.625 54.75h-.418c-2.297 0-4.176-1.687-4.176-3.75 0 2.063-1.879 3.75-4.176 3.75h-.648c-2.297 0-4.176-1.687-4.176-3.75 0 2.063-1.879 3.75-4.176 3.75h-.648c-2.297 0-4.176-1.687-4.176-3.75 0 2.063-1.879 3.75-4.176 3.75h-.648c-2.297 0-4.176-1.687-4.176-3.75 0 2.063-1.879 3.75-4.176 3.75h-.648c-2.297 0-4.176-1.687-4.176-3.75 0 2.063-1.879 3.75-4.176 3.75h-.648a4.512 4.512 0 0 1-1.832-.388"/><path fill="#FF9800" d="M68.207 58.162c-2.297 0-4.176-1.873-4.176-4.162 0 2.29-1.879 4.162-4.176 4.162h-.648c-2.297 0-4.176-1.873-4.176-4.162 0 2.29-1.879 4.162-4.176 4.162h-.648c-2.297 0-4.176-1.873-4.176-4.162 0 2.29-1.879 4.162-4.176 4.162h-.648c-2.297 0-4.176-1.873-4.176-4.162 0 2.29-1.879 4.162-4.176 4.162h-.648c-2.297 0-4.176-1.873-4.176-4.162 0 2.29-1.879 4.162-4.176 4.162h-.648a4.137 4.137 0 0 1-1.832-.43v9.199c0 1.142.93 2.07 2.076 2.07H66.55a2.073 2.073 0 0 0 2.076-2.07v-8.769h-.418z"/></g></svg>