<svg xmlns="http://www.w3.org/2000/svg" xmlns:xlink="http://www.w3.org/1999/xlink" width="67" height="67"><defs><path id="a" d="M0 0h67v67H0z"/><path id="c" d="M22.375 3.576l-2.752 2.75-2.753-2.75c-3.706-3.704-9.77-3.704-13.476 0-3.707 3.704-3.707 9.765 0 13.469l2.752 2.75 13.477 13.47 13.476-13.47 2.753-2.75c3.706-3.704 3.706-9.765 0-13.47A9.504 9.504 0 0 0 29.113.799a9.504 9.504 0 0 0-6.738 2.778"/><path id="e" d="M22.375 3.576l-2.752 2.75-2.753-2.75c-3.706-3.704-9.77-3.704-13.476 0-3.707 3.704-3.707 9.765 0 13.469l2.752 2.75 13.477 13.47 13.476-13.47 2.753-2.75c3.706-3.704 3.706-9.765 0-13.47A9.504 9.504 0 0 0 29.113.799a9.504 9.504 0 0 0-6.738 2.778z"/></defs><g fill="none" fill-rule="evenodd"><mask id="b" fill="#FFF"><use xlink:href="#a"/></mask><path fill="#1DE9B6" d="M67 33.5C67 52.001 52.002 67 33.5 67 14.999 67 0 52.001 0 33.5 0 14.998 14.999 0 33.5 0 52.002 0 67 14.998 67 33.5" mask="url(#b)"/><path fill="#FF3D00" d="M49.8 22.592c-3.694-3.695-9.74-3.695-13.433 0l-2.745 2.743-2.744-2.743c-3.694-3.695-9.739-3.695-13.434 0-3.694 3.694-3.694 9.74 0 13.434l2.744 2.744 13.434 13.434L47.057 38.77l2.744-2.744c3.694-3.694 3.694-9.74 0-13.434"/><g transform="translate(14 19)"><mask id="d" fill="#FFF"><use xlink:href="#c"/></mask><path stroke="#FFF" mask="url(#d)" d="M1.174 17.031h6.725l1.116-3.359 1.681 6.158 2.8-10.636 1.68 13.994 2.241-9.516 1.95 6.158.85-2.799h2.24"/><mask id="f" fill="#FFF"><use xlink:href="#e"/></mask><path stroke="#FFF" d="M25.127 17a1.245 1.245 0 1 1-2.49-.002 1.245 1.245 0 0 1 2.49.002z" mask="url(#f)"/></g></g></svg>