<svg xmlns="http://www.w3.org/2000/svg" width="11" height="19"><path fill="#FFF" d="M7.503 13.807a9.214 9.214 0 0 0 2.857-1.18c.661-.441.84-1.334.396-1.994a1.443 1.443 0 0 0-1.932-.438 6.253 6.253 0 0 1-6.617 0 1.441 1.441 0 0 0-1.984.447l-.001.004a1.433 1.433 0 0 0 .45 1.98h.001c.877.551 1.843.95 2.854 1.179l-2.75 2.743a1.42 1.42 0 0 0-.022 2.009l.024.023c.273.28.642.42 1.01.42.37 0 .739-.14 1.012-.42l2.715-2.695 2.7 2.697c.572.55 1.484.535 2.037-.036a1.435 1.435 0 0 0 0-1.995l-2.75-2.744zm-1.987-4a4.915 4.915 0 0 0 4.915-4.902C10.431 2.2 8.225 0 5.516 0 2.806 0 .6 2.2.6 4.906a4.913 4.913 0 0 0 4.916 4.902zm0-6.932a2.035 2.035 0 0 1 2.034 2.03 2.034 2.034 0 0 1-4.07.001 2.037 2.037 0 0 1 2.036-2.032z"/></svg>