<svg xmlns="http://www.w3.org/2000/svg" width="401" height="400"><g fill="none" fill-rule="evenodd" stroke-width="60"><path stroke="#FFC107" d="M191.103 30.233a170 170 0 0 1 52.896 5.56"/><path stroke="#1DE9B6" d="M110.417 55.518a170 170 0 0 1 80.686-25.285"/><path stroke="#4FC3F7" d="M42.602 135.767a170 170 0 0 1 67.815-80.249"/><path stroke="#3949AB" d="M41.291 260.922a170 170 0 0 1 1.31-125.155"/><path stroke="#263238" d="M156 364.207A170 170 0 0 1 41.292 260.922"/><path stroke="#FF5722" d="M306.984 332.115a170 170 0 0 1-150.983 32.092"/><path stroke="#145551" d="M244 35.793c90.688 24.3 144.507 117.517 120.207 208.206a170 170 0 0 1-57.223 88.116"/></g></svg>