<svg xmlns="http://www.w3.org/2000/svg" width="64" height="39"><g fill="none"><path fill="#FF5F00" d="M40.06 34.751H23.007V4.159H40.06z"/><path fill="#EB001B" d="M24.09 19.455c0-6.206 2.91-11.734 7.443-15.296a19.427 19.427 0 0 0-12.045-4.16C8.725 0 0 8.71 0 19.455S8.725 38.91 19.488 38.91c4.547 0 8.73-1.555 12.045-4.16-4.533-3.562-7.444-9.09-7.444-15.295"/><path fill="#F79E1B" d="M63.066 19.455c0 10.745-8.725 19.455-19.488 19.455-4.547 0-8.73-1.555-12.046-4.16 4.534-3.562 7.445-9.09 7.445-15.295 0-6.206-2.91-11.734-7.445-15.296a19.434 19.434 0 0 1 12.046-4.16C54.34 0 63.066 8.71 63.066 19.455"/></g></svg>