<svg id="Layer_1" xmlns="http://www.w3.org/2000/svg" xmlns:xlink="http://www.w3.org/1999/xlink" viewBox="0 0 173.6 185.6"><style>.st0{display:none}.st1{display:inline;fill:none}.st1,.st3,.st5{stroke:#4caf50;stroke-width:2;stroke-miterlimit:10}.st3{clip-path:url(#SVGID_2_);fill:none}.st5{display:inline;fill:#fff}.st6{fill:#4caf50}</style><g class="st0"><path class="st1" d="M128.7 45.2c0 97-63 129-63 129h-1s-63-32-63-129v-1c39.8 0 63-20 63-20h1s23.2 20 63 20v1z"/><path class="st1" d="M119.7 52.6c0 80.2-54.1 111.6-54.1 111.6h-.8S10.7 132.7 10.7 52.6v-.4c32.9 0 54.1-17 54.1-17h.8s21.2 17 54.1 17v.4z"/><path class="st1" d="M42.7 95.2l17 21 35-46"/></g><g class="st0"><path class="st1" d="M108.1 154.7L79 172.2l7.2 12c10.7-4.3 20.3-10.6 28.6-18.3l-6.7-11.2z"/><defs><path id="SVGID_1_" d="M93 162.2H9.4c-4.3 0-7.7-3.5-7.7-7.7V43c0-4.3 3.5-7.7 7.7-7.7H93c4.3 0 7.7 3.5 7.7 7.7v111.5c0 4.2-3.5 7.7-7.7 7.7z"/></defs><clipPath id="SVGID_2_"><use xlink:href="#SVGID_1_" overflow="visible"/></clipPath><path class="st3" d="M21.7 4.2v141m80-24v.6c0 7.4-5.8 13.4-13 13.4"/><path d="M90.7 135.2h-80c-1.1 0-2 .9-2 2v16c0 1.1.9 2 2 2h80.1c4.7 0 8.6-3.3 9.7-7.7h.3" clip-path="url(#SVGID_2_)" fill="#fff" stroke="#4caf50" stroke-width="2" stroke-miterlimit="10"/><path class="st3" d="M82.7 70.2l-10.5-6.1-10.5 6.1v-35h21z"/><use xlink:href="#SVGID_1_" overflow="visible" fill="none" stroke="#4caf50" stroke-width="2" stroke-miterlimit="10"/><path class="st5" d="M85.9 112L72.4 89.5c-1.3-2.2-4.2-2.9-6.4-1.6-2.2 1.3-2.9 4.2-1.6 6.4l6.4 10.6-1.3.8-14.3-23.8c-1.3-2.2-4.2-2.9-6.4-1.6-2.2 1.3-2.9 4.2-1.6 6.4L60 107.8l-1.3.8-15.1-25.1c-1.3-2.2-4.2-2.9-6.4-1.6-2.2 1.3-2.9 4.2-1.6 6.4l15.1 25.1-1.3.8-11.1-18.6c-1.3-2.2-4.2-2.9-6.4-1.6-2.2 1.3-2.9 4.2-1.6 6.4l18.5 30.8-9.4-4.4c-2.6-1.2-5.7-.1-6.9 2.5-1.2 2.6-.1 5.7 2.5 6.9 11.6 5.5 23.3 11.2 35.3 15.9l5.6 9.3 23.8-14.3-7.4-12.3c2.4-9.3-6.3-22.7-6.4-22.8z"/><path transform="rotate(-31.03 89.997 157.54)" class="st5" d="M69.9 149H110v17H69.9z"/><circle class="st1" cx="99.9" cy="151.6" r="2.3"/></g><path class="st6" d="M101.7 176.2c-39.1 0-71-31.9-71-71s31.9-71 71-71 71 31.9 71 71-31.9 71-71 71zm0-140c-38 0-69 31-69 69s31 69 69 69 69-31 69-69-31-69-69-69zM2.8 103.7l6.6-26.5H1l17.2-31.8-5.3 23.8h8.4L2.8 103.7zm1.6-28.5H12L8.6 88.7 18 71.2h-7.6L13.2 59 4.4 75.2z"/><path class="st6" d="M101.2 109.2c-2.2 0-4-1.8-4-4s1.8-4 4-4 4 1.8 4 4-1.8 4-4 4zm0-6c-1.1 0-2 .9-2 2s.9 2 2 2 2-.9 2-2-.9-2-2-2z"/><path class="st6" d="M101.7 166.2c-33.6 0-61-27.4-61-61s27.4-61 61-61 61 27.4 61 61c0 33.7-27.4 61-61 61zm0-120c-32.5 0-59 26.5-59 59s26.5 59 59 59 59-26.5 59-59-26.5-59-59-59z"/><path class="st6" d="M46.7 105.2h6.2v1h-6.2zm55.5-11c-8.3 0-15-6.7-15-15s6.7-15 15-15 15 6.7 15 15-6.7 15-15 15zm0-28c-7.2 0-13 5.8-13 13s5.8 13 13 13 13-5.8 13-13-5.8-13-13-13zm-8.5 38h57.4v2H93.7zm15.5-74.5H95.1c-1.6 0-2.9-1.3-2.9-2.9v-8.1c0-1.6 1.3-2.9 2.9-2.9h14.1c1.6 0 2.9 1.3 2.9 2.9v8.1c.1 1.6-1.2 2.9-2.9 2.9zm-14.1-12c-.5 0-.9.4-.9.9v8.1c0 .5.4.9.9.9h14.1c.5 0 .9-.4.9-.9v-8.1c0-.5-.4-.9-.9-.9H95.1z"/><path class="st6" d="M96.2 28.7h2v7h-2zm10 0h2v7h-2zm45.3 17.6c-.6 0-1.1-.2-1.6-.5L138.1 38c-.7-.4-1.1-1.1-1.3-1.9-.2-.8 0-1.6.4-2.2l4.5-6.7c.4-.7 1.1-1.1 1.9-1.3.8-.2 1.6 0 2.2.4l11.7 7.8c.7.4 1.1 1.1 1.3 1.9.2.8 0 1.6-.4 2.2L154 45c-.4.7-1.1 1.1-1.9 1.3h-.6zm-7.2-18.5h-.2c-.2 0-.5.2-.6.4L139 35c-.1.2-.2.5-.1.7 0 .2.2.5.4.6l11.7 7.8c.2.1.5.2.7.1.2 0 .5-.2.6-.4l4.5-6.7c.1-.2.2-.5.1-.7s-.2-.5-.4-.6L144.8 28c-.2-.1-.3-.2-.5-.2z"/><path transform="rotate(-56.312 138.446 41.197)" class="st6" d="M135 40.2h7v2h-7z"/><path transform="rotate(-56.312 146.767 46.743)" class="st6" d="M143.3 45.7h7v2h-7z"/><path class="st6" d="M96.7 33.5c-8.2-2.1-14-8.8-14-16.3 0-9.4 8.7-17 19.5-17s19.5 7.6 19.5 17c0 7.5-5.7 14.2-13.9 16.3l-.5-1.9c7.3-1.9 12.4-7.8 12.4-14.4 0-8.3-7.9-15-17.5-15S84.7 9 84.7 17.2c0 6.6 5.1 12.5 12.5 14.4l-.5 1.9zm54 71.7h6.2v1h-6.2z"/><path transform="rotate(-30.021 56.371 130.697)" class="st6" d="M53.3 130.2h6.2v1h-6.2z"/><path transform="rotate(-29.991 146.442 78.683)" class="st6" d="M143.3 78.2h6.2v1h-6.2z"/><path transform="rotate(-60 56.362 80.27)" class="st6" d="M55.9 77.2h1v6.2h-1z"/><path transform="rotate(-60.007 146.435 132.266)" class="st6" d="M145.9 129.2h1v6.2h-1z"/><path class="st6" d="M101.7 50.6h1v6.2h-1zm0 104h1v6.2h-1z"/><path transform="rotate(-60.007 75.233 150.551)" class="st6" d="M72.2 150.1h6.2v1h-6.2z"/><path transform="rotate(-60.007 127.231 60.488)" class="st6" d="M124.2 60h6.2v1h-6.2z"/><path transform="rotate(-30 75.49 60.906)" class="st6" d="M75 57.8h1V64h-1z"/><path transform="rotate(-30 127.491 150.98)" class="st6" d="M127 147.9h1v6.2h-1z"/><path transform="rotate(-10.101 110.808 158.715)" class="st6" d="M110.3 158h1v1.5h-1z"/><path transform="rotate(-10.113 91.823 52.26)" class="st6" d="M91.3 51.5h1v1.6h-1z"/><path transform="rotate(-20.024 119.214 156.076)" class="st6" d="M118.7 155.4h1v1.4h-1z"/><path transform="rotate(-20.011 82.442 55.194)" class="st6" d="M82 54.4h1v1.5h-1z"/><path transform="rotate(-40.12 136.648 147.689)" class="st6" d="M136.1 147h1v1.4h-1z"/><path transform="rotate(-40.116 66.982 64.988)" class="st6" d="M66.5 64.1h1v1.7h-1z"/><path transform="rotate(-49.977 142.5 141.113)" class="st6" d="M142 140.4h1v1.5h-1z"/><path transform="rotate(-50.022 60.34 72.212)" class="st6" d="M59.8 71.4h1v1.7h-1z"/><path transform="rotate(-40.084 141.833 70.638)" class="st6" d="M140.8 70.1h2v1h-2z"/><path transform="rotate(-40.049 60.192 139.36)" class="st6" d="M59.2 138.8h2v1h-2z"/><path transform="rotate(-50.074 135.398 64.669)" class="st6" d="M134.5 64.2h1.8v1h-1.8z"/><path transform="rotate(-50.029 67.228 146.087)" class="st6" d="M66.4 145.6h1.7v1h-1.7z"/><path transform="rotate(-70.081 119.467 53.816)" class="st6" d="M118.6 53.3h1.8v1h-1.8z"/><path transform="rotate(-70.13 82.49 155.909)" class="st6" d="M81.6 155.4h1.7v1h-1.7z"/><path transform="rotate(-79.986 110.894 51.93)" class="st6" d="M110.1 51.4h1.7v1h-1.7z"/><path transform="rotate(-79.986 92.013 158.669)" class="st6" d="M91.1 158.2h1.8v1h-1.8z"/><path transform="rotate(-70.11 152.245 123.48)" class="st6" d="M151.7 122.7h1v1.6h-1z"/><path transform="rotate(-70.117 50.76 86.749)" class="st6" d="M50.3 85.8h1v2h-1z"/><path transform="rotate(-80.003 154.038 114.866)" class="st6" d="M153.5 114h1v1.7h-1z"/><path transform="rotate(-80.021 48.68 96.317)" class="st6" d="M48.2 95.3h1v2h-1z"/><path transform="rotate(-9.957 154.345 96.16)" class="st6" d="M153.4 95.6h1.8v1h-1.8z"/><path transform="rotate(-9.957 49.284 114.596)" class="st6" d="M48.3 114.1h1.9v1h-1.9z"/><path transform="rotate(-19.993 151.53 87.81)" class="st6" d="M150.6 87.3h1.9v1h-1.9z"/><path transform="rotate(-19.95 51.542 124.137)" class="st6" d="M50.5 123.6h2.1v1h-2.1z"/></svg>