<svg xmlns="http://www.w3.org/2000/svg" viewBox="0 0 52.5 75.5"><path fill="#FFF" d="M45 32.2h-.4V6c0-3.3-2.7-6-6-6h-.1c-3.3 0-6 2.7-6 6v26.3H32c-.1-.4-.3-.8-.5-1.2L16.6 5.2c-.8-1.4-2.1-2.4-3.7-2.8-1.5-.4-3.2-.2-4.6.6-2.9 1.7-3.9 5.4-2.2 8.3 0 .1 4.2 7.7 8 14.5-1.5-.3-3-.1-4.3.7-1.4.8-2.4 2.1-2.8 3.7-.4 1.6-.2 3.2.6 4.6-1.4-.3-2.9-.1-4.1.6l-.5.3c-1.3.8-2.3 2-2.7 3.5-.4 1.5-.2 3.1.6 4.4l5.7 9.8c.1.2.2.3.3.5.5 12 10.5 21.7 22.6 21.7h.4c12.5 0 22.7-10.2 22.7-22.6V39.7c-.1-4.1-3.5-7.5-7.6-7.5zM34.5 6c0-2.2 1.8-4 4-4h.1c2.2 0 4 1.8 4 4v26.3h-8.1V6zM8.9 30.7c.3-1.1 1-1.9 1.9-2.5.6-.4 1.3-.5 2-.5.4 0 .7 0 1.1.1 1.1.3 1.9 1 2.5 1.9L23 41.3c.5.9.7 2 .4 3.1-.3 1.1-1 1.9-1.9 2.5-1.9 1.1-4.4.5-5.6-1.5L9.3 33.7c-.6-.9-.7-2-.4-3zM2.5 42.5c-1-1.8-.4-4.1 1.4-5.2l.5-.3c.6-.3 1.2-.5 1.9-.5.3 0 .7 0 1 .1 1 .3 1.8.9 2.3 1.8l5.7 9.8c1 1.8.4 4.1-1.4 5.2l-.5.3c-1.5.9-3.4.6-4.6-.7v-.3h-.3c-.1-.1-.2-.3-.3-.5l-5.7-9.7zm27.3 31h-.4C19 73.5 10.3 65.7 9 55.7c.8.4 1.6.6 2.5.6 1 0 2-.2 2.9-.8l.5-.3c2.2-1.3 3.2-3.7 2.8-6.1.6.2 1.2.3 1.9.3 1 0 2.1-.3 3-.8 1.4-.8 2.4-2.1 2.8-3.7s.2-3.2-.6-4.6l-6.7-11.6C13.9 21.4 7.9 10.4 7.8 10.3c-1.1-1.9-.4-4.4 1.5-5.6.9-.5 2-.7 3.1-.4 1.1.3 1.9 1 2.5 1.9L29.8 32c0 .1.1.1.1.2h-1.1c-1.5 0-2.7 1.2-2.7 2.7v2.4c0 4.1 3.4 7.5 7.5 7.5h1.3c-1.3 1.2-2 3-2 4.9h2c0-2.7 2.2-4.9 4.9-4.9h.2v-2h-6.4c-3 0-5.5-2.5-5.5-5.5V35c0-.4.3-.7.7-.7H45c3 0 5.5 2.5 5.5 5.5v13.1c0 11.3-9.3 20.6-20.7 20.6z"/></svg>