<svg xmlns="http://www.w3.org/2000/svg" width="1345" height="341"><path fill="#00615A" fill-rule="evenodd" d="M58.794 214.622v120.934H0V.956c14.021 0 29.158-.16 45.41-.478A2585.43 2585.43 0 0 1 95.122 0c23.581 0 44.056 2.948 61.423 8.843 17.367 5.895 30.831 14.021 40.391 24.378 9.56 10.357 16.57 21.67 21.032 33.938 4.461 12.269 6.692 25.732 6.692 40.391 0 30.273-10.835 55.926-32.504 76.958-21.35 21.032-51.305 31.548-89.864 31.548-19.439 0-33.938-.478-43.498-1.434zM100.858 54.97l-42.064.956v102.77c16.89 1.593 30.751 2.39 41.586 2.39 18.801 0 33.858-4.62 45.171-13.862 11.313-9.241 16.969-22.625 16.969-40.152 0-34.735-20.554-52.102-61.662-52.102zm175.904 221.314V.956h54.97v252.862c0 23.263 6.214 34.894 18.642 34.894 7.01 0 14.5-2.868 22.466-8.604l11.472 42.064c-14.977 12.11-33.938 18.164-56.882 18.164-33.779 0-50.668-21.35-50.668-64.052zm159.652-100.38l-13.862-40.152c23.263-13.703 48.597-20.554 76.002-20.554 29.955 0 51.783 7.33 65.486 21.988 13.703 14.659 20.554 37.125 20.554 67.398v130.972h-47.8V310.7c-12.747 18.483-33.938 27.724-63.574 27.724-20.395 0-36.726-5.975-48.995-17.925-12.269-11.95-18.403-27.963-18.403-48.039 0-22.307 7.17-39.515 21.51-51.624 14.34-12.11 33.3-18.164 56.882-18.164 19.439 0 35.69 4.62 48.756 13.862.637-19.12-2.151-33.141-8.365-42.064-6.214-8.923-16.81-13.384-31.787-13.384-16.57 0-35.372 4.94-56.404 14.818zm54.97 116.154c18.483 0 32.345-6.533 41.586-19.598v-21.988c-8.923-7.01-21.51-10.516-37.762-10.516-10.197 0-18.483 2.39-24.856 7.17-6.373 4.78-9.56 11.313-9.56 19.598 0 7.648 2.868 13.782 8.604 18.403 5.736 4.62 13.065 6.931 21.988 6.931zm144.834-38.24V60.706h54.97v59.75h69.31v51.624h-69.31v78.392c0 25.812 8.604 38.718 25.812 38.718 10.835 0 21.829-4.143 32.982-12.428l16.73 42.542c-17.527 14.021-38.718 21.032-63.574 21.032-23.263 0-40.232-7.09-50.907-21.271-10.675-14.18-16.013-35.93-16.013-65.247zm239.956 81.738h-54.97v-215.1h54.97v215.1zM815.468 43.02c0-9.56 3.266-17.288 9.799-23.183 6.533-5.895 14.738-8.843 24.617-8.843 8.604 0 16.013 3.027 22.227 9.082 6.214 6.055 9.321 13.703 9.321 22.944 0 10.197-3.107 18.483-9.321 24.856-6.214 6.373-13.623 9.56-22.227 9.56-9.879 0-18.084-3.187-24.617-9.56-6.533-6.373-9.799-14.659-9.799-24.856zM1051.6 172.08H942.138v-51.624h186.42v39.674l-116.632 124.28h114.242v51.146h-191.2v-39.674L1051.6 172.08zm144.834 3.824l-13.862-40.152c23.263-13.703 48.597-20.554 76.002-20.554 29.955 0 51.783 7.33 65.486 21.988 13.703 14.659 20.554 37.125 20.554 67.398v130.972h-47.8V310.7c-12.747 18.483-33.938 27.724-63.574 27.724-20.395 0-36.726-5.975-48.995-17.925-12.269-11.95-18.403-27.963-18.403-48.039 0-22.307 7.17-39.515 21.51-51.624 14.34-12.11 33.3-18.164 56.882-18.164 19.439 0 35.69 4.62 48.756 13.862.637-19.12-2.151-33.141-8.365-42.064-6.214-8.923-16.81-13.384-31.787-13.384-16.57 0-35.372 4.94-56.404 14.818zm54.97 116.154c18.483 0 32.345-6.533 41.586-19.598v-21.988c-8.923-7.01-21.51-10.516-37.762-10.516-10.197 0-18.483 2.39-24.856 7.17-6.373 4.78-9.56 11.313-9.56 19.598 0 7.648 2.868 13.782 8.604 18.403 5.736 4.62 13.065 6.931 21.988 6.931z"/></svg>