<svg xmlns="http://www.w3.org/2000/svg" xmlns:xlink="http://www.w3.org/1999/xlink" width="81" height="81"><defs><path id="a" d="M0 0h81v81H0z"/></defs><g fill="none" fill-rule="evenodd"><mask id="b" fill="#FFF"><use xlink:href="#a"/></mask><path fill="#4FC3F7" d="M81 40.5C81 62.867 62.867 81 40.5 81S0 62.867 0 40.5 18.133 0 40.5 0 81 18.133 81 40.5" mask="url(#b)"/><path fill="#F5F5F5" d="M35.194 34.913l-3.34-3.342 5.922-5.921 3.341 3.341zm14.321 14.32l-3.342-3.341 5.922-5.923 3.341 3.343z"/><path fill="#9E9E9E" d="M55.436 43.312c-.264.264-1.225-.271-2.147-1.193-.923-.923-1.457-1.885-1.194-2.15.264-.262 1.226.273 2.148 1.195.922.922 1.457 1.884 1.193 2.148m-14.32-14.32c-.264.263-1.226-.272-2.148-1.194-.922-.923-1.456-1.884-1.193-2.148.263-.263 1.225.271 2.148 1.194.922.921 1.457 1.883 1.193 2.147"/><path fill="#F44336" d="M31.672 48.821L20.74 45.458l-2.102 2.102 8.83 5.466"/><path fill="#FFF" d="M22.529 25.623l-1.936 1.937 17.661 10.977 4.022-4.022z"/><path fill="#F44336" d="M44.457 32.332l-21.001-7.637-.928.928 19.747 8.892z"/><path fill="#FFF" d="M55.463 58.558l-1.937 1.936-10.977-17.66 4.022-4.022z"/><path fill="#F44336" d="M48.753 36.629l7.638 21.001-.928.928-8.892-19.746zm-16.66 12.613l3.364 10.933-2.102 2.102-5.466-8.83"/><path fill="#FFF" d="M40.15 46.186l-5.25-5.25 16.774-16.774 5.251 5.25z"/><path fill="#FFF" d="M40.545 45.791c-6.115 6.115-12.248 9.896-13.698 8.447-1.449-1.45 2.333-7.583 8.447-13.698m16.084-16.084c2.77-2.768 6.187-3.836 7.637-2.386 1.45 1.45.382 4.868-2.386 7.637"/><path fill="#90CAF9" d="M55.674 25.411c1.05 1.05.888 2.958-.292 4.511.223-.174.44-.364.649-.573 1.824-1.824 2.34-4.263 1.155-5.45-1.187-1.185-3.626-.669-5.45 1.155a7.084 7.084 0 0 0-.574.65c1.554-1.18 3.462-1.343 4.512-.293"/></g></svg>