<svg xmlns="http://www.w3.org/2000/svg" width="19" height="11"><path fill="#FFF" d="M9.263 10.948H10.4s.343-.038.518-.229c.166-.178.166-.507.166-.507s-.024-1.55.688-1.778c.702-.226 1.593 1.497 2.542 2.159.726.506 1.271.397 1.271.397l2.542-.035s1.332-.085.702-1.148c-.048-.084-.357-.784-1.877-2.22-1.593-1.498-1.379-1.256.535-3.852 1.163-1.581 1.64-2.547 1.485-2.958-.132-.386-.998-.29-.998-.29l-2.851.025s-.214-.025-.368.072c-.155.096-.25.315-.25.315s-.452 1.23-1.057 2.269c-1.285 2.196-1.795 2.316-1.997 2.171-.478-.314-.356-1.27-.356-1.956 0-2.125.32-3.018-.618-3.247-.309-.073-.539-.12-1.334-.134-1.021-.01-1.882.008-2.37.25-.322.164-.57.525-.428.544.19.024.617.117.843.432.297.407.284 1.316.284 1.316s.167 2.507-.391 2.819c-.392.21-.915-.226-2.055-2.218C4.445 2.131 4.004.997 4.004.997S3.921.79 3.768.67c-.18-.133-.441-.18-.441-.18L.607.512S.204.526.062.706c-.132.157-.013.495-.013.495S2.176 6.26 4.587 8.807c2.209 2.335 4.715 2.185 4.715 2.185l-.04-.044z"/></svg>