<svg width="24" height="24" xmlns="http://www.w3.org/2000/svg"><g fill="#CFD8DC" fill-rule="evenodd"><path d="M12 21a9 9 0 1 0 0-18 9 9 0 0 0 0 18zm0 1C6.477 22 2 17.523 2 12S6.477 2 12 2s10 4.477 10 10-4.477 10-10 10z" fill-rule="nonzero"/><path d="M10.928 14.287c.009-.542.07-.97.184-1.285.114-.315.347-.663.698-1.046l.895-.923c.383-.433.574-.898.574-1.394 0-.479-.125-.854-.376-1.125-.25-.271-.615-.407-1.093-.407-.465 0-.839.123-1.122.37-.282.246-.423.576-.423.99H9c.01-.738.272-1.333.79-1.787.517-.453 1.19-.68 2.02-.68.86 0 1.532.231 2.013.694.48.462.72 1.097.72 1.904 0 .797-.368 1.583-1.106 2.358l-.746.738c-.332.37-.499.9-.499 1.593h-1.264zm-.055 2.167c0-.205.063-.377.188-.516s.311-.209.557-.209c.246 0 .433.07.56.209a.735.735 0 0 1 .192.516.71.71 0 0 1-.191.51c-.128.134-.315.201-.56.201-.247 0-.433-.067-.558-.202a.718.718 0 0 1-.188-.509z"/></g></svg>