<svg xmlns="http://www.w3.org/2000/svg" width="36" height="24"><g fill="none" fill-rule="evenodd"><rect width="36" height="24" fill="#FFF100" rx="2"/><path fill="#000" d="M15.705 11.705C15.316 11.316 15 10.552 15 10V9l-1-1v2l-1 1-4-4v1l-.295-.295a.996.996 0 0 1 0-1.41l1.178-1.178a2.999 2.999 0 0 1 4.237.003L17 8h-1l2 2 2-2h-1l2.88-2.88a2.996 2.996 0 0 1 4.237-.003l1.177 1.177a.998.998 0 0 1 0 1.411L27 8V7l-4 4-1-1V8l-1 1v1c0 .552-.316 1.316-.705 1.705L20 12l6 6-2 2-6-6-6 6-2-2 6-6-.295-.295z"/></g></svg>