<svg xmlns="http://www.w3.org/2000/svg" width="36" height="24"><g fill="none" fill-rule="evenodd"><rect width="36" height="24" fill="#0D4B8D" rx="2"/><g fill="#FFF"><path d="M14 3h13v2H14zm-3 3h15v2H11zM9 9h14v2H9zm2 4h12v2H12s-1-1-1-2zm3 6h13v2H14z"/><path fill-rule="nonzero" d="M15 21l.625-.78a22.917 22.917 0 0 1-2.16-1.97 24.508 24.508 0 0 1-3.49-4.587c-.32-.545-.588-1.05-.804-1.5a9.783 9.783 0 0 1-.243-.534v.742c.036-.088.116-.27.243-.534.216-.45.484-.955.805-1.5a24.508 24.508 0 0 1 3.488-4.586c.676-.7 1.396-1.358 2.16-1.97L15 3h-1.552c-.493.436-.967.89-1.422 1.36a26.494 26.494 0 0 0-3.774 4.962c-.35.595-.644 1.149-.884 1.648-.147.306-.245.53-.296.659L6.923 12l.149.371c.051.13.15.353.296.66.24.498.534 1.052.884 1.647a26.494 26.494 0 0 0 3.774 4.961c.455.471.929.925 1.422 1.361H15zm8.544-8c1.806 1.633 3.026 3.368 3.754 5.115.523 1.254.702 2.26.702 2.885h-2c0-.068-.015-.243-.063-.512a7.739 7.739 0 0 0-.485-1.603c-.717-1.72-2.02-3.46-4.077-5.104L22 13h1.544zm1.955-8a7.624 7.624 0 0 0 .438-1.488C25.985 3.243 26 3.068 26 3h2c0 .47-.102 1.156-.374 2h-2.127zm-1.83 3a11.842 11.842 0 0 0 1.362-2h2.218a12.63 12.63 0 0 1-1.087 2H23.67zM22 11l-.625-.78A17.29 17.29 0 0 0 22.748 9h2.686c-.54.68-1.169 1.348-1.89 2H22z"/></g></g></svg>