<svg xmlns="http://www.w3.org/2000/svg" xmlns:xlink="http://www.w3.org/1999/xlink" width="128" height="80"><defs><rect id="a" width="128" height="80" rx="3.2"/></defs><g fill="none" fill-rule="evenodd"><use fill="#FFF" xlink:href="#a"/><rect width="127" height="79" x=".5" y=".5" stroke="#ECEFF1" rx="3.2"/><path fill="#00579F" fill-rule="nonzero" d="M59.018 51.525h-6.516l4.076-24.76h6.516zM82.64 27.37c-1.285-.5-3.323-1.054-5.844-1.054-6.435 0-10.967 3.371-10.994 8.191-.054 3.557 3.244 5.532 5.71 6.718 2.522 1.211 3.379 2.002 3.379 3.082-.026 1.659-2.038 2.423-3.914 2.423-2.601 0-3.995-.394-6.114-1.317l-.858-.395-.912 5.558c1.529.684 4.344 1.29 7.268 1.318 6.837 0 11.288-3.32 11.341-8.456.026-2.819-1.715-4.978-5.47-6.743-2.279-1.133-3.674-1.897-3.674-3.056.026-1.054 1.18-2.133 3.753-2.133 2.118-.053 3.675.447 4.854.948l.59.263.885-5.347z"/><path fill="#00579F" d="M99.345 26.765l5.257 24.76h-6.034s-.59-2.846-.777-3.715h-8.367l-1.367 3.714h-6.838L90.9 28.82c.67-1.607 1.85-2.054 3.405-2.054h5.04zM91.3 42.753h5.416c-.268-1.238-1.502-7.164-1.502-7.164l-.455-2.134c-.322.922-.884 2.423-.857 2.37 0 0-2.065 5.506-2.602 6.928z"/><path fill="#00579F" fill-rule="nonzero" d="M47.06 26.765l-6.382 16.884-.697-3.425c-1.18-3.95-4.88-8.243-9.01-10.378l5.846 21.652h6.89L53.95 26.765h-6.89z"/><path fill="#FAA61A" fill-rule="nonzero" d="M34.752 26.765H24.268l-.107.5c8.178 2.055 13.594 7.008 15.82 12.96L37.7 28.846c-.375-1.581-1.528-2.029-2.949-2.081z"/></g></svg>