<svg xmlns="http://www.w3.org/2000/svg" xmlns:xlink="http://www.w3.org/1999/xlink" width="128" height="80"><defs><rect id="a" width="128" height="80" rx="3.2"/></defs><g fill="none" fill-rule="evenodd"><use fill="#FFF" xlink:href="#a"/><rect width="127" height="79" x=".5" y=".5" stroke="#ECEFF1" rx="3.2"/><path fill="#F7C700" d="M50 31l5-2h25v25H52a4 4 0 0 1-4-4V38l2-7z"/><path fill="#F7C700" d="M49.943 27.499L70 12v27l-22 3V31.455a5 5 0 0 1 1.943-3.956z"/><path fill="#D3AC00" d="M70 29v10L51 52l24-9V29z"/><path fill="#000" d="M65 32.202c1.105-.508 2-1.815 2-2.92 0-1.104-.895-1.588-2-1.08s-2 1.815-2 2.92c0 1.104.895 1.588 2 1.08z"/></g></svg>