<svg xmlns="http://www.w3.org/2000/svg" xmlns:xlink="http://www.w3.org/1999/xlink" width="44" height="44"><defs><path id="a" d="M0 0h44v44H0z"/></defs><g fill="none" fill-rule="evenodd"><mask id="b" fill="#fff"><use xlink:href="#a"/></mask><path fill="#E91E63" d="M44 22c0 12.15-9.85 22-22 22S0 34.15 0 22 9.85 0 22 0s22 9.85 22 22" mask="url(#b)"/><path fill="#FFF" d="M30 29.883V26c-1.663 0-3.246-.34-4.686-.95l-2.443 2.444a18.072 18.072 0 0 1-6.365-6.364l2.444-2.444A11.967 11.967 0 0 1 18 14h-6c0 3.337.924 6.45 2.506 9.13a18.078 18.078 0 0 0 6.364 6.364A17.892 17.892 0 0 0 30 32v-2.117z"/></g></svg>