<svg id="Layer_1" xmlns="http://www.w3.org/2000/svg" viewBox="0 0 240 208" enable-background="new 0 0 240 208"><style>.st1{fill:#fff}.st4{fill:#4caf50}.st5{fill:none;stroke:#4caf50}</style><filter filterUnits="objectBoundingBox" height="138.2%" id="im_prolong-c" width="129.5%" x="-14.8%" y="-16.2%"><feOffset dy="4" in="SourceAlpha" result="shadowOffsetOuter1"/><feGaussianBlur in="shadowOffsetOuter1" result="shadowBlurOuter1" stdDeviation="8"/><feColorMatrix in="shadowBlurOuter1" values="0 0 0 0 0 0 0 0 0 0 0 0 0 0 0 0 0 0 0.12 0"/></filter><filter filterUnits="objectBoundingBox" height="138.2%" id="im_prolong-a" width="129.5%" x="-14.8%" y="-16.2%"><feOffset dy="4" in="SourceAlpha" result="shadowOffsetOuter1"/><feGaussianBlur in="shadowOffsetOuter1" result="shadowBlurOuter1" stdDeviation="8"/><feColorMatrix in="shadowBlurOuter1" values="0 0 0 0 0 0 0 0 0 0 0 0 0 0 0 0 0 0 0.12 0"/></filter><g transform="translate(-39)"><g filter="url(#im_prolong-a)"><path id="im_prolong-b_2_" d="M226 52h12c2.2 0 4 1.8 4 4v128c0 2.2-1.8 4-4 4H70c-2.2 0-4-1.8-4-4V56c0-2.2 1.8-4 4-4h12v6.4c-1.8.8-3 2.5-3 4.6 0 2.8 2.2 5 5 5s5-2.2 5-5c0-2.1-1.2-3.8-3-4.6V52h16v6.4c-1.8.8-3 2.5-3 4.6 0 2.8 2.2 5 5 5s5-2.2 5-5c0-2.1-1.2-3.8-3-4.6V52h16v6.4c-1.8.8-3 2.5-3 4.6 0 2.8 2.2 5 5 5s5-2.2 5-5c0-2.1-1.2-3.8-3-4.6V52h16v6.4c-1.8.8-3 2.5-3 4.6 0 2.8 2.2 5 5 5s5-2.2 5-5c0-2.1-1.2-3.8-3-4.6V52h16v6.4c-1.8.8-3 2.5-3 4.6 0 2.8 2.2 5 5 5s5-2.2 5-5c0-2.1-1.2-3.8-3-4.6V52h16v6.4c-1.8.8-3 2.5-3 4.6 0 2.8 2.2 5 5 5s5-2.2 5-5c0-2.1-1.2-3.8-3-4.6V52h16v6.4c-1.8.8-3 2.5-3 4.6 0 2.8 2.2 5 5 5s5-2.2 5-5c0-2.1-1.2-3.8-3-4.6V52h16v6.4c-1.8.8-3 2.5-3 4.6 0 2.8 2.2 5 5 5s5-2.2 5-5c0-2.1-1.2-3.8-3-4.6V52z"/></g><path id="im_prolong-b_1_" class="st1" d="M226 52h12c2.2 0 4 1.8 4 4v128c0 2.2-1.8 4-4 4H70c-2.2 0-4-1.8-4-4V56c0-2.2 1.8-4 4-4h12v6.4c-1.8.8-3 2.5-3 4.6 0 2.8 2.2 5 5 5s5-2.2 5-5c0-2.1-1.2-3.8-3-4.6V52h16v6.4c-1.8.8-3 2.5-3 4.6 0 2.8 2.2 5 5 5s5-2.2 5-5c0-2.1-1.2-3.8-3-4.6V52h16v6.4c-1.8.8-3 2.5-3 4.6 0 2.8 2.2 5 5 5s5-2.2 5-5c0-2.1-1.2-3.8-3-4.6V52h16v6.4c-1.8.8-3 2.5-3 4.6 0 2.8 2.2 5 5 5s5-2.2 5-5c0-2.1-1.2-3.8-3-4.6V52h16v6.4c-1.8.8-3 2.5-3 4.6 0 2.8 2.2 5 5 5s5-2.2 5-5c0-2.1-1.2-3.8-3-4.6V52h16v6.4c-1.8.8-3 2.5-3 4.6 0 2.8 2.2 5 5 5s5-2.2 5-5c0-2.1-1.2-3.8-3-4.6V52h16v6.4c-1.8.8-3 2.5-3 4.6 0 2.8 2.2 5 5 5s5-2.2 5-5c0-2.1-1.2-3.8-3-4.6V52h16v6.4c-1.8.8-3 2.5-3 4.6 0 2.8 2.2 5 5 5s5-2.2 5-5c0-2.1-1.2-3.8-3-4.6V52z"/><g filter="url(#im_prolong-c)"><path id="im_prolong-d_2_" d="M215 41h12c2.2 0 4 1.8 4 4v128c0 2.2-1.8 4-4 4H59c-2.2 0-4-1.8-4-4V45c0-2.2 1.8-4 4-4h12v6.4c-1.8.8-3 2.5-3 4.6 0 2.8 2.2 5 5 5s5-2.2 5-5c0-2.1-1.2-3.8-3-4.6V41h16v6.4c-1.8.8-3 2.5-3 4.6 0 2.8 2.2 5 5 5s5-2.2 5-5c0-2.1-1.2-3.8-3-4.6V41h16v6.4c-1.8.8-3 2.5-3 4.6 0 2.8 2.2 5 5 5s5-2.2 5-5c0-2.1-1.2-3.8-3-4.6V41h16v6.4c-1.8.8-3 2.5-3 4.6 0 2.8 2.2 5 5 5s5-2.2 5-5c0-2.1-1.2-3.8-3-4.6V41h16v6.4c-1.8.8-3 2.5-3 4.6 0 2.8 2.2 5 5 5s5-2.2 5-5c0-2.1-1.2-3.8-3-4.6V41h16v6.4c-1.8.8-3 2.5-3 4.6 0 2.8 2.2 5 5 5s5-2.2 5-5c0-2.1-1.2-3.8-3-4.6V41h16v6.4c-1.8.8-3 2.5-3 4.6 0 2.8 2.2 5 5 5s5-2.2 5-5c0-2.1-1.2-3.8-3-4.6V41h16v6.4c-1.8.8-3 2.5-3 4.6 0 2.8 2.2 5 5 5s5-2.2 5-5c0-2.1-1.2-3.8-3-4.6V41z"/></g><path id="im_prolong-d_1_" class="st1" d="M215 41h12c2.2 0 4 1.8 4 4v128c0 2.2-1.8 4-4 4H59c-2.2 0-4-1.8-4-4V45c0-2.2 1.8-4 4-4h12v6.4c-1.8.8-3 2.5-3 4.6 0 2.8 2.2 5 5 5s5-2.2 5-5c0-2.1-1.2-3.8-3-4.6V41h16v6.4c-1.8.8-3 2.5-3 4.6 0 2.8 2.2 5 5 5s5-2.2 5-5c0-2.1-1.2-3.8-3-4.6V41h16v6.4c-1.8.8-3 2.5-3 4.6 0 2.8 2.2 5 5 5s5-2.2 5-5c0-2.1-1.2-3.8-3-4.6V41h16v6.4c-1.8.8-3 2.5-3 4.6 0 2.8 2.2 5 5 5s5-2.2 5-5c0-2.1-1.2-3.8-3-4.6V41h16v6.4c-1.8.8-3 2.5-3 4.6 0 2.8 2.2 5 5 5s5-2.2 5-5c0-2.1-1.2-3.8-3-4.6V41h16v6.4c-1.8.8-3 2.5-3 4.6 0 2.8 2.2 5 5 5s5-2.2 5-5c0-2.1-1.2-3.8-3-4.6V41h16v6.4c-1.8.8-3 2.5-3 4.6 0 2.8 2.2 5 5 5s5-2.2 5-5c0-2.1-1.2-3.8-3-4.6V41h16v6.4c-1.8.8-3 2.5-3 4.6 0 2.8 2.2 5 5 5s5-2.2 5-5c0-2.1-1.2-3.8-3-4.6V41z"/><path d="M74 84.5c-6.7 12.3-8.3 27.8-4.4 41.2 6.7 23.1 36.3 36.1 57.8 24.8 5.9-3.1 10.4-8.1 14.9-13 3.6-3.9 8-8.2 9-13.8 1.4-8.1-8.7-17.6-15.8-10.6-9.3 9.1 4.5 24.2 11 29.9 16 14 42.2 24.4 60 7.5" fill="none" stroke="#4caf50" stroke-linecap="round" stroke-dasharray="2,6"/><circle class="st4" cx="76.5" cy="81.5" r="4.5"/><circle class="st4" cx="208.5" cy="146.5" r="4.5"/><circle class="st5" cx="98.5" cy="81.5" r="2.5"/><circle class="st5" cx="120.5" cy="81.5" r="2.5"/><circle class="st5" cx="142.5" cy="81.5" r="2.5"/><circle class="st5" cx="164.5" cy="81.5" r="2.5"/><circle class="st5" cx="186.5" cy="81.5" r="2.5"/><circle class="st5" cx="208.5" cy="81.5" r="2.5"/><circle class="st5" cx="76.5" cy="103.5" r="2.5"/><circle class="st5" cx="98.5" cy="103.5" r="2.5"/><circle class="st5" cx="120.5" cy="103.5" r="2.5"/><circle class="st5" cx="142.5" cy="103.5" r="2.5"/><circle class="st5" cx="164.5" cy="103.5" r="2.5"/><circle class="st5" cx="186.5" cy="103.5" r="2.5"/><circle class="st5" cx="208.5" cy="103.5" r="2.5"/><circle class="st5" cx="76.5" cy="125.5" r="2.5"/><circle class="st5" cx="98.5" cy="125.5" r="2.5"/><circle class="st5" cx="120.5" cy="125.5" r="2.5"/><circle class="st5" cx="142.5" cy="125.5" r="2.5"/><circle class="st5" cx="164.5" cy="125.5" r="2.5"/><circle class="st5" cx="186.5" cy="125.5" r="2.5"/><circle class="st5" cx="208.5" cy="125.5" r="2.5"/><circle class="st5" cx="76.5" cy="147.5" r="2.5"/><circle class="st5" cx="98.5" cy="147.5" r="2.5"/><circle class="st5" cx="120.5" cy="147.5" r="2.5"/><circle class="st5" cx="142.5" cy="147.5" r="2.5"/><circle class="st5" cx="164.5" cy="147.5" r="2.5"/><circle class="st5" cx="186.5" cy="147.5" r="2.5"/><path d="M230 92.5c20.7 0 37.5-16.8 37.5-37.5S250.7 17.5 230 17.5 192.5 34.3 192.5 55s16.8 37.5 37.5 37.5z" fill="none" stroke="#4caf50" stroke-width="5"/><path class="st5" d="M48.8 6.5C22.1 6.6.5 28.3.5 55c0 26.8 21.7 48.5 48.5 48.5 26.7 0 48.4-21.6 48.5-48.3" transform="translate(181)"/><path class="st4" d="M49 28c1.1 0 2 .9 2 2v23c0 1.1-.9 2-2 2s-2-.9-2-2V30c0-1.1.9-2 2-2z" transform="translate(181)"/><path class="st4" d="M47.5 52.4c.7-.8 2-.9 2.8-.2l12.1 10.5c.8.7.9 2 .2 2.8-.7.8-2 .9-2.8.2L47.7 55.3c-.9-.8-1-2-.2-2.9z" transform="translate(181)"/><path class="st5" d="M43.4 0l6.3 6.4-6.3 6.3" transform="translate(181)"/></g></svg>