<svg width="44" height="44" fill="none" xmlns="http://www.w3.org/2000/svg"><mask id="a" maskUnits="userSpaceOnUse" x="0" y="0" width="44" height="44"><path d="M0 0h44v44H0V0z" fill="#fff"/></mask><g mask="url(#a)"><path d="M44 22c0 12.2-9.8 22-22 22S0 34.2 0 22 9.9 0 22 0s22 9.9 22 22z" fill="#4CAF50"/><path d="M22 26.1c-3.3 0-6-2.7-6-6v-4c0-3.3 2.7-6 6-6s6 2.7 6 6v4c0 3.3-2.7 6-6 6z" stroke="#fff" stroke-miterlimit="10"/><path d="M31 19.1H13v12h18v-12z" fill="#fff"/><path d="M29 36a7 7 0 1 0 0-14 7 7 0 0 0 0 14z" fill="#fff" stroke="#4CAF50"/><path d="M26 29.4l2 2 4.1-5" stroke="#4CAF50"/></g></svg>