<svg width="44" height="44" fill="none" xmlns="http://www.w3.org/2000/svg"><mask id="a" maskUnits="userSpaceOnUse" x="0" y="0" width="44" height="44"><path d="M0 0h44v44H0V0z" fill="#fff"/></mask><g mask="url(#a)"><path d="M44 22c0 12.2-9.8 22-22 22S0 34.2 0 22 9.9 0 22 0s22 9.9 22 22z" fill="#4CAF50"/><path d="M21.3 18.7h-2v2h2v-2zm4 0h-2v2h2v-2zm4 0h-2v2h2v-2z" fill="#fff"/><path d="M24.3 28.8a9.1 9.1 0 1 0 0-18.2 9.1 9.1 0 0 0 0 18.2z" stroke="#fff" stroke-miterlimit="10"/><path d="M10.6 33.4l7.5-7.5" stroke="#fff" stroke-width="2" stroke-miterlimit="10"/></g></svg>